<?xml version="1.0" encoding="UTF-8" standalone="no"?>
<!-- Created with Inkscape (http://www.inkscape.org/) -->

<svg
   xmlns:dc="http://purl.org/dc/elements/1.1/"
   xmlns:cc="http://creativecommons.org/ns#"
   xmlns:rdf="http://www.w3.org/1999/02/22-rdf-syntax-ns#"
   xmlns:svg="http://www.w3.org/2000/svg"
   xmlns="http://www.w3.org/2000/svg"
   xmlns:sodipodi="http://sodipodi.sourceforge.net/DTD/sodipodi-0.dtd"
   xmlns:inkscape="http://www.inkscape.org/namespaces/inkscape"
   id="svg2985"
   version="1.1"
   inkscape:version="0.48.4 r9939"
   width="886.35748"
   height="330.68869"
   xml:space="preserve"
   sodipodi:docname="logo_aterbe.svg"><sodipodi:namedview
     pagecolor="#ffffff"
     bordercolor="#666666"
     borderopacity="1"
     objecttolerance="10"
     gridtolerance="10"
     guidetolerance="10"
     inkscape:pageopacity="0"
     inkscape:pageshadow="2"
     inkscape:window-width="1366"
     inkscape:window-height="706"
     id="namedview2987"
     showgrid="false"
     inkscape:zoom="0.69749276"
     inkscape:cx="418.14345"
     inkscape:cy="93.826354"
     inkscape:window-x="-8"
     inkscape:window-y="-8"
     inkscape:window-maximized="1"
     inkscape:current-layer="g2993"
     fit-margin-top="0"
     fit-margin-left="0"
     fit-margin-right="0"
     fit-margin-bottom="0" /><metadata
     id="metadata2991"><rdf:RDF><cc:Work
         rdf:about=""><dc:format>image/svg+xml</dc:format><dc:type
           rdf:resource="http://purl.org/dc/dcmitype/StillImage" /><dc:title></dc:title></cc:Work></rdf:RDF></metadata><defs
     id="defs2989"><clipPath
       clipPathUnits="userSpaceOnUse"
       id="clipPath2999"><path
         d="m 0,595.275 841.89,0 L 841.89,0 0,0 0,595.275 z"
         id="path3001"
         inkscape:connector-curvature="0" /></clipPath><clipPath
       clipPathUnits="userSpaceOnUse"
       id="clipPath3027"><path
         d="m 296.121,399.906 c -20.802,-30.655 -20.092,-17.431 -43.276,-35.128 l 0,0 c 13.139,15.756 24.281,9.919 32.047,33.293 l 0,0 -47.91,-2.608 c -12.699,-13.335 -20.293,-11.397 -37.55,-27.914 l 0,0 c 0.813,1.112 1.856,2.109 2.48,3.381 l 0,0 c 3.321,6.752 2.05,-1.503 17.926,22.627 l 0,0 -50.802,-3.174 c 0,0 -0.759,-7.37 -19.668,-26.614 l 0,0 c 0.635,4.051 27.63,25.066 12.05,25.979 l 0,0 -10.796,-0.635 c -12.065,-20.955 -20.955,-13.97 -37.986,-35.606 l 0,0 C 87.391,331.088 85.355,325.592 60.353,300.591 l 0,0 24.161,-22.457 19.498,15.139 -1.015,-5.125 c -6.632,-5.141 -8.493,-10.369 -19.336,-15.187 l 0,0 23.31,-22.517 15.205,9.241 c -1.618,-0.954 3.685,2.909 9.17,6.773 l 0,0 c 11.126,7.835 23.006,15.67 -20.562,-16.685 l 0,0 9.023,-2.811 c 19.777,5.925 45.452,15.905 2.238,-5.774 l 0,0 59.296,-39.126 c 19.957,14.366 -1.098,3.918 24.083,22.522 l 0,0 c 1.304,0.962 4.317,-0.618 7.338,-2.199 l 0,0 c 3.03,-1.585 6.068,-3.171 7.395,-2.187 l 0,0 c 4.222,3.13 -32.791,-25.014 -32.791,-25.014 l 0,0 25.927,-17.284 c 0,0 113.588,107.219 144.975,133.384 l 0,0 c 1.6,1.334 -1.377,1.303 -4.356,1.272 l 0,0 c -2.969,-0.031 -5.938,-0.062 -4.374,1.26 l 0,0 c 29.673,25.067 46.858,52.857 67.425,74.319 l 0,0 C 503.362,291.333 730.064,176.698 730.064,176.698 l 0,0 39.375,0 c 0,0 -274.322,105.724 -349.8,232.272 l 0,0 c 0.006,-24.882 -45.61,-45.361 -66.311,-59.063 l 0,0 c 23.644,16.969 44.535,34.514 53.201,59.458 l 0,0 -110.408,-9.459 z M 122.176,259.685 c 0.074,0.044 0.162,0.098 0.266,0.162 l 0,0 -0.266,-0.162 z"
         id="path3029"
         inkscape:connector-curvature="0" /></clipPath></defs><g
     id="g2993"
     inkscape:groupmode="layer"
     inkscape:label="LogoAterbe"
     transform="matrix(1.25,0,0,-1.25,-75.44075,551.56093)"><g
       id="g2995"
       style="fill:#2e0c0c"
       inkscape:export-filename="C:\Users\Dell\ATERBE_MANAGEMENT\Aterbe_web_project\logo_aterbe_inkscape_tone2.png"
       inkscape:export-xdpi="11.169308"
       inkscape:export-ydpi="11.169308"><g
         id="g2997"
         clip-path="url(#clipPath2999)"
         style="fill:#2e0c0c"><g
           id="g3003"
           transform="translate(577.6382,431.9673)"
           style="fill:#2e0c0c"><path
             d="M 0,0 C 0,0 -40.509,3.781 -58.063,8.102 -75.617,12.422 -71.026,0 -71.026,0 l 0.54,-26.736 c 0,0 21.605,-16.203 38.079,-21.064 l -1.351,-11.073 c 0,0 -11.883,8.373 -26.735,8.102 l -15.394,0 0.539,-23.765 24.307,-7.562 c 0,0 -21.84,-14.574 -11.073,-21.334 11.612,-7.292 6.212,-25.116 6.212,-25.116 0,0 3.853,10.965 12.963,12.153 6.211,0.81 4.05,12.423 4.05,14.853 l -1.35,5.131 12.964,-3.722 c 0,0 -6.483,13.444 -7.563,26.677 l 18.635,0.81 0.269,24.846 c 0,0 4.862,12.423 -9.722,17.283 l -9.991,6.481 c 0,0 27.545,-8.641 40.508,-7.291 12.963,1.35 13.234,4.321 13.234,4.321 L 0,0 z"
             style="fill:#2e0c0c;fill-opacity:1;fill-rule:evenodd;stroke:none"
             id="path3005"
             inkscape:connector-curvature="0" /></g><g
           id="g3007"
           transform="translate(577.6382,431.9673)"
           style="fill:#2e0c0c"><path
             d="M 0,0 C 0,0 -40.509,3.781 -58.063,8.102 -75.617,12.422 -71.026,0 -71.026,0 l 0.54,-26.736 c 0,0 21.605,-16.203 38.079,-21.064 l -1.351,-11.073 c 0,0 -11.883,8.373 -26.735,8.102 l -15.394,0 0.539,-23.765 24.307,-7.562 c 0,0 -21.84,-14.574 -11.073,-21.334 11.612,-7.292 6.212,-25.116 6.212,-25.116 0,0 3.853,10.965 12.963,12.153 6.211,0.81 4.05,12.423 4.05,14.853 l -1.35,5.131 12.964,-3.722 c 0,0 -6.483,13.444 -7.563,26.677 l 18.635,0.81 0.269,24.846 c 0,0 4.862,12.423 -9.722,17.283 l -9.991,6.481 c 0,0 27.545,-8.641 40.508,-7.291 12.963,1.35 13.234,4.321 13.234,4.321 L 0,0 z"
             style="fill:#000000;stroke:#000000;stroke-width:0.54500002;stroke-linecap:butt;stroke-linejoin:miter;stroke-miterlimit:3.86400008;stroke-opacity:1;stroke-dasharray:none"
             id="path3009"
             inkscape:connector-curvature="0" /></g><g
           id="g3011"
           transform="translate(426.2017,256.2412)"
           style="fill:#2e0c0c"><path
             d="m 0,0 c 0,4.509 -0.644,8.212 -1.932,11.11 -1.287,2.952 -3.889,5.447 -7.805,7.488 -2.523,1.34 -5.286,2.198 -8.289,2.576 -2.953,0.375 -7.162,0.56 -12.634,0.563 l -18.107,0 0,-44.278 12.956,0 c 6.974,0 12.471,0.322 16.498,0.967 4.023,0.643 7.564,2.011 10.622,4.105 3.003,2.093 5.203,4.453 6.598,7.084 C -0.699,-7.703 -0.003,-4.241 0,0 m -5.634,54.422 c 0,2.898 -0.482,5.394 -1.448,7.487 -0.966,2.146 -2.522,3.837 -4.667,5.072 -2.575,1.449 -5.447,2.334 -8.61,2.657 -3.167,0.321 -7.54,0.483 -13.118,0.483 l -15.29,0 0,-35.1 18.107,0 c 4.989,0 8.663,0.241 11.024,0.724 2.36,0.536 4.801,1.608 7.323,3.22 2.415,1.555 4.13,3.595 5.151,6.118 1.018,2.521 1.526,5.633 1.528,9.339 M 16.577,0.645 c 0,-5.958 -1.127,-11.218 -3.38,-15.78 -2.253,-4.563 -5.286,-8.319 -9.093,-11.27 -4.506,-3.542 -9.335,-6.066 -14.485,-7.568 -5.15,-1.449 -11.805,-2.173 -19.957,-2.173 l -34.362,0 0,119.872 31.787,0 c 8.529,0 14.912,-0.297 19.152,-0.886 4.29,-0.538 8.395,-1.851 12.313,-3.944 4.29,-2.31 7.427,-5.341 9.415,-9.097 C 9.95,66.096 10.941,61.72 10.944,56.676 10.944,51.041 9.44,45.994 6.438,41.541 3.485,37.086 -0.618,33.597 -5.874,31.076 l 0,-0.644 C 1.26,28.5 6.784,24.957 10.702,19.805 c 3.916,-5.1 5.872,-11.487 5.875,-19.16"
             style="fill:#2e0c0c;fill-opacity:1;fill-rule:evenodd;stroke:none"
             id="path3013"
             inkscape:connector-curvature="0" /></g><g
           id="g3015"
           transform="translate(514.1763,275.0801)"
           style="fill:#2e0c0c"><path
             d="m 0,0 c -0.108,4.078 -0.591,7.593 -1.448,10.546 -0.861,2.951 -2.093,5.447 -3.702,7.487 -1.771,2.254 -4.052,3.97 -6.841,5.153 -2.736,1.179 -6.143,1.768 -10.22,1.771 -4.023,0 -7.458,-0.619 -10.3,-1.852 -2.791,-1.182 -5.339,-2.926 -7.644,-5.233 -2.254,-2.362 -3.972,-4.991 -5.151,-7.89 C -46.488,7.138 -47.237,3.809 -47.56,0 L 0,0 z m -17.704,-57.078 c -14.324,0 -25.457,4.025 -33.397,12.075 -7.885,8.104 -11.829,19.588 -11.829,34.457 0,14.651 3.835,26.297 11.508,34.939 7.67,8.694 17.701,13.042 30.097,13.042 5.578,0 10.513,-0.805 14.806,-2.415 4.29,-1.61 8.045,-4.134 11.266,-7.568 3.22,-3.436 5.687,-7.648 7.404,-12.639 1.715,-4.939 2.573,-11.004 2.576,-18.195 l 0,-8.211 -62.287,0 c 0,-10.466 2.628,-18.463 7.887,-23.99 5.256,-5.53 12.526,-8.293 21.808,-8.293 3.325,0 6.571,0.375 9.737,1.128 3.219,0.749 6.116,1.716 8.691,2.897 2.736,1.234 5.042,2.413 6.92,3.543 1.876,1.18 3.434,2.28 4.668,3.301 l 0.885,0 0,-16.504 c -1.77,-0.699 -3.971,-1.585 -6.598,-2.656 -2.63,-1.021 -4.99,-1.827 -7.082,-2.416 -2.953,-0.805 -5.633,-1.421 -8.047,-1.852 -2.362,-0.427 -5.367,-0.64 -9.013,-0.643"
             style="fill:#2e0c0c;fill-opacity:1;fill-rule:evenodd;stroke:none"
             id="path3017"
             inkscape:connector-curvature="0" /></g><g
           id="g3019"
           transform="translate(150.6226,389.1128)"
           style="fill:#2e0c0c"><path
             d="M 0,0 C -12.065,-20.955 -20.955,-13.97 -37.986,-35.605 -63.231,-58.024 -65.268,-63.521 -90.27,-88.522 l 24.162,-22.457 19.498,15.14 -1.016,-5.126 c -6.632,-5.141 -8.493,-10.369 -19.335,-15.187 l 23.31,-22.516 15.47,9.402 c -6.964,-4.32 54.377,38.966 -11.658,-10.073 l 9.024,-2.812 c 19.776,5.926 45.452,15.905 2.238,-5.773 l 59.296,-39.127 c 19.957,14.367 -1.099,3.919 24.083,22.522 2.612,1.929 12.085,-6.349 14.732,-4.387 4.223,3.131 -32.791,-25.013 -32.791,-25.013 l 25.927,-17.283 c 0,0 113.589,107.218 144.976,133.383 3.195,2.664 -11.863,-0.114 -8.73,2.533 29.673,25.067 46.857,52.856 67.424,74.318 86.399,-96.802 313.101,-211.437 313.101,-211.437 l 39.375,0 c 0,0 -274.322,105.724 -349.799,232.272 0.006,-26.963 -53.566,-48.758 -70.945,-62.359 25.517,18.021 48.606,36.193 57.834,62.754 L 145.498,10.793 c -20.802,-30.655 -20.092,-17.431 -43.275,-35.128 13.138,15.756 24.281,9.919 32.047,33.293 L 86.359,6.35 C 73.66,-6.985 66.066,-5.047 48.81,-21.564 c 0.813,1.112 1.855,2.109 2.48,3.381 3.32,6.753 2.05,-1.502 17.925,22.628 L 18.414,1.27 c 0,0 -0.76,-7.37 -19.668,-26.613 0.635,4.051 27.629,25.066 12.049,25.978 L 0,0 z"
             style="fill:#2e0c0c;fill-opacity:1;fill-rule:nonzero;stroke:none"
             id="path3021"
             inkscape:connector-curvature="0" /></g></g></g><g
       id="g3023"><g
         id="g3025"
         clip-path="url(#clipPath3027)"><g
           id="g3031"
           transform="translate(148.1841,303.3926)"><path
             d="M 0,0 -15.294,46.7 -30.522,0 0,0 z m -56.456,-38.917 33.382,99.055 16.225,0 33.381,-99.055 -13.897,0 -8.978,27.674 -37.836,0 -8.977,-27.674 -13.3,0 z"
             style="fill:#ffffff;fill-opacity:1;fill-rule:evenodd;stroke:none"
             id="path3033"
             inkscape:connector-curvature="0" /></g><g
           id="g3035"
           transform="translate(205.5854,263.0127)"><path
             d="m 0,0 c -6.828,0 -12.148,1.929 -15.959,5.787 -3.813,3.902 -5.719,10.043 -5.719,18.428 l 0,41.178 -8.445,0 0,10.378 8.445,0 0,21.354 12.501,0 0,-21.354 23.009,0 0,-10.378 -23.009,0 0,-35.325 c 0,-3.771 0.068,-6.675 0.2,-8.714 0.133,-2.041 0.642,-3.948 1.53,-5.721 0.752,-1.553 1.971,-2.728 3.657,-3.526 1.684,-0.754 3.967,-1.13 6.85,-1.13 2.038,0 4.01,0.286 5.918,0.864 1.905,0.62 3.279,1.129 4.123,1.53 l 0.731,0 0,-11.243 C 11.481,1.463 9.088,0.953 6.65,0.598 4.256,0.199 2.039,0 0,0"
             style="fill:#ffffff;fill-opacity:1;fill-rule:evenodd;stroke:none"
             id="path3037"
             inkscape:connector-curvature="0" /></g><g
           id="g3039"
           transform="translate(275.5483,309.9121)"><path
             d="m 0,0 c -0.089,3.37 -0.488,6.274 -1.196,8.714 -0.711,2.439 -1.73,4.501 -3.06,6.187 -1.463,1.863 -3.348,3.281 -5.651,4.258 -2.262,0.975 -5.077,1.461 -8.446,1.464 -3.325,0 -6.164,-0.512 -8.511,-1.531 -2.307,-0.977 -4.412,-2.417 -6.318,-4.324 -1.862,-1.952 -3.281,-4.124 -4.256,-6.519 C -38.414,5.897 -39.033,3.147 -39.3,0 L 0,0 z m -14.629,-47.166 c -11.837,0 -21.036,3.326 -27.597,9.978 -6.516,6.697 -9.774,16.187 -9.774,28.473 0,12.108 3.169,21.731 9.509,28.872 6.338,7.184 14.627,10.777 24.87,10.777 4.609,0 8.687,-0.665 12.235,-1.996 3.545,-1.331 6.648,-3.416 9.31,-6.253 2.66,-2.84 4.698,-6.32 6.117,-10.445 1.418,-4.08 2.127,-9.093 2.129,-15.034 l 0,-6.786 -51.47,0 c 0,-8.648 2.172,-15.257 6.517,-19.824 4.344,-4.57 10.351,-6.852 18.021,-6.852 2.747,0 5.43,0.31 8.046,0.931 2.66,0.62 5.054,1.418 7.182,2.395 2.261,1.019 4.167,1.993 5.719,2.927 1.549,0.975 2.836,1.884 3.856,2.728 l 0.732,0 0,-13.638 c -1.462,-0.578 -3.281,-1.31 -5.453,-2.195 -2.174,-0.844 -4.123,-1.509 -5.851,-1.996 -2.44,-0.665 -4.656,-1.174 -6.651,-1.53 -1.951,-0.353 -4.433,-0.53 -7.447,-0.532"
             style="fill:#ffffff;fill-opacity:1;fill-rule:evenodd;stroke:none"
             id="path3041"
             inkscape:connector-curvature="0" /></g><g
           id="g3043"
           transform="translate(339.731,325.3457)"><path
             d="m 0,0 -0.665,0 c -0.931,0.266 -1.928,0.42 -2.992,0.466 -1.021,0.087 -2.261,0.131 -3.724,0.133 -3.371,0 -6.717,-0.732 -10.041,-2.196 -3.325,-1.463 -6.474,-3.638 -9.442,-6.519 l 0,-52.754 -12.502,0 0,74.308 12.502,0 0,-11.043 c 4.564,4.035 8.532,6.873 11.902,8.515 3.412,1.684 6.714,2.526 9.908,2.528 1.284,0 2.239,-0.046 2.86,-0.133 C -1.529,13.259 -0.798,13.172 0,13.039 L 0,0 z"
             style="fill:#ffffff;fill-opacity:1;fill-rule:evenodd;stroke:none"
             id="path3045"
             inkscape:connector-curvature="0" /></g></g></g></g></svg>